{
  "asset": {
    "generator": "Khronos glTF Blender I/O v1.4.40",
    "version": "2.0"
  },
  "scene": 0,
  "scenes": [
    {
      "name": "Scene",
      "nodes": [0, 1]
    }
  ],
  "nodes": [
    {
      "name": "Camera",
      "rotation": [
        0.5156288146972656, 0.3422864079475403, -0.18812689185142517,
        0.7626107931137085
      ],
      "translation": [
        2.3735082149505615, -0.34780028462409973, -0.3044726252555847
      ]
    },
    {
      "mesh": 0,
      "name": "Sofa Large",
      "scale": [1, 0.09999999403953552, 0.3999999761581421],
      "translation": [0.548150897026062, -1.378037691116333, -1.875168800354004]
    }
  ],
  "materials": [
    {
      "doubleSided": true,
      "name": "Sofa",
      "normalTexture": {
        "index": 0,
        "texCoord": 0
      },
      "pbrMetallicRoughness": {
        "baseColorTexture": {
          "index": 1,
          "texCoord": 0
        },
        "metallicFactor": 0,
        "roughnessFactor": 0.5
      }
    }
  ],
  "meshes": [
    {
      "name": "Cube.009",
      "primitives": [
        {
          "attributes": {
            "POSITION": 0,
            "NORMAL": 1,
            "TEXCOORD_0": 2
          },
          "indices": 3,
          "material": 0
        }
      ]
    }
  ],
  "textures": [
    {
      "sampler": 0,
      "source": 0
    },
    {
      "sampler": 0,
      "source": 1
    }
  ],
  "images": [
    {
      "mimeType": "image/jpeg",
      "name": "Sofa_2K_Bump",
      "uri": "Sofa_2K_Bump.jpg"
    },
    {
      "mimeType": "image/jpeg",
      "name": "Sofa_2K_Albedo",
      "uri": "Sofa_2K_Albedo.jpg"
    }
  ],
  "accessors": [
    {
      "bufferView": 0,
      "componentType": 5126,
      "count": 10513,
      "max": [1.2021293640136719, 6.935626029968262, 1.0000001192092896],
      "min": [-1.2021297216415405, -1.2196236848831177, -1.5000009536743164],
      "type": "VEC3"
    },
    {
      "bufferView": 1,
      "componentType": 5126,
      "count": 10513,
      "type": "VEC3"
    },
    {
      "bufferView": 2,
      "componentType": 5126,
      "count": 10513,
      "type": "VEC2"
    },
    {
      "bufferView": 3,
      "componentType": 5123,
      "count": 52560,
      "type": "SCALAR"
    }
  ],
  "bufferViews": [
    {
      "buffer": 0,
      "byteLength": 126156,
      "byteOffset": 0
    },
    {
      "buffer": 0,
      "byteLength": 126156,
      "byteOffset": 126156
    },
    {
      "buffer": 0,
      "byteLength": 84104,
      "byteOffset": 252312
    },
    {
      "buffer": 0,
      "byteLength": 105120,
      "byteOffset": 336416
    }
  ],
  "samplers": [
    {
      "magFilter": 9729,
      "minFilter": 9986
    }
  ],
  "buffers": [
    {
      "byteLength": 441536,
      "uri": "couch.bin"
    }
  ]
}
